<svg xmlns="http://www.w3.org/2000/svg" viewBox="0 0 64 64">
  <defs>
    <linearGradient id="domain-admin-bg" x1="8" y1="8" x2="56" y2="56" gradientUnits="userSpaceOnUse">
      <stop stop-color="#132a25"/>
      <stop offset="1" stop-color="#071815"/>
    </linearGradient>
    <linearGradient id="domain-admin-hex" x1="22" y1="14" x2="42" y2="38" gradientUnits="userSpaceOnUse">
      <stop stop-color="#8ae8c4"/>
      <stop offset="1" stop-color="#65d6ad"/>
    </linearGradient>
  </defs>
  <rect
    x="3"
    y="3"
    width="58"
    height="58"
    rx="14"
    fill="url(#domain-admin-bg)"
    stroke="#65d6ad"
    stroke-width="2.5"
  />
  <g opacity="0.18" stroke="#65d6ad" stroke-width="1">
    <line x1="16" y1="0" x2="16" y2="64"/>
    <line x1="32" y1="0" x2="32" y2="64"/>
    <line x1="48" y1="0" x2="48" y2="64"/>
    <line x1="0" y1="16" x2="64" y2="16"/>
    <line x1="0" y1="32" x2="64" y2="32"/>
    <line x1="0" y1="48" x2="64" y2="48"/>
  </g>
  <path
    d="M32 13 L43.06 19.5 L43.06 32.5 L32 39 L20.94 32.5 L20.94 19.5 Z"
    fill="url(#domain-admin-hex)"
    stroke="#edf7f2"
    stroke-width="1.75"
  />
  <circle cx="32" cy="22.5" r="2.4" fill="#071815"/>
  <circle cx="27.2" cy="29.5" r="1.9" fill="#071815"/>
  <circle cx="36.8" cy="29.5" r="1.9" fill="#071815"/>
  <circle cx="46" cy="17" r="5.25" fill="#e0b95c" stroke="#071815" stroke-width="1.75"/>
</svg>
