<svg xmlns="http://www.w3.org/2000/svg" viewBox="0 0 64 64">
  <defs>
    <radialGradient id="ocean" cx="35%" cy="28%" r="70%">
      <stop offset="0%" stop-color="#69b7d8"/>
      <stop offset="55%" stop-color="#24619a"/>
      <stop offset="100%" stop-color="#0b2545"/>
    </radialGradient>
    <linearGradient id="land" x1="0" x2="1" y1="0" y2="1">
      <stop offset="0%" stop-color="#a2c778"/>
      <stop offset="65%" stop-color="#5f8f54"/>
      <stop offset="100%" stop-color="#c8b178"/>
    </linearGradient>
  </defs>
  <circle cx="32" cy="32" r="29" fill="url(#ocean)"/>
  <path d="M13 24c5-9 17-11 23-6 4 4 1 8 7 10 5 2 9 3 9 9 0 7-8 13-17 13-7 0-10-4-13-9-2-4-8-5-10-10-1-2 0-5 1-7z" fill="url(#land)"/>
  <path d="M26 15c4-2 10-1 13 3 2 3 1 7 4 9 3 1 7 2 9 5-2-14-13-25-27-27-1 3-1 6 1 10z" fill="#e8f0f2" opacity=".32"/>
  <path d="M17 39c4 1 8 0 11 3 3 2 4 5 7 7-9 1-18-3-23-11 1 0 3 0 5 1z" fill="#dbd18b" opacity=".55"/>
  <circle cx="32" cy="32" r="29" fill="none" stroke="#d8eef8" stroke-width="3"/>
</svg>
